<mxfile host="app.diagrams.net" agent="Mozilla/5.0 (Windows NT 10.0; Win64; x64) AppleWebKit/537.36 (KHTML, like Gecko) Chrome/136.0.0.0 Safari/537.36" version="27.1.1">
  <diagram name="Page-1" id="YVVt5K1hGpy95flgfiRQ">
    <mxGraphModel dx="1783" dy="971" grid="1" gridSize="10" guides="1" tooltips="1" connect="1" arrows="1" fold="1" page="1" pageScale="1" pageWidth="827" pageHeight="1169" math="0" shadow="0">
      <root>
        <mxCell id="0" />
        <mxCell id="1" parent="0" />
        <mxCell id="mFNmh4hHeNqdvngOl9E4-1" value="Patient" style="shape=umlActor;verticalLabelPosition=bottom;verticalAlign=top;html=1;outlineConnect=0;" parent="1" vertex="1">
          <mxGeometry x="30" y="20" width="30" height="60" as="geometry" />
        </mxCell>
        <mxCell id="mFNmh4hHeNqdvngOl9E4-2" value="Clinician" style="shape=umlActor;verticalLabelPosition=bottom;verticalAlign=top;html=1;outlineConnect=0;" parent="1" vertex="1">
          <mxGeometry x="129" y="20" width="30" height="60" as="geometry" />
        </mxCell>
        <mxCell id="mFNmh4hHeNqdvngOl9E4-3" value="Administrator" style="shape=umlActor;verticalLabelPosition=bottom;verticalAlign=top;html=1;outlineConnect=0;" parent="1" vertex="1">
          <mxGeometry x="236" y="20" width="30" height="60" as="geometry" />
        </mxCell>
        <mxCell id="mFNmh4hHeNqdvngOl9E4-6" value="System" style="rounded=0;whiteSpace=wrap;html=1;" parent="1" vertex="1">
          <mxGeometry x="366" y="20" width="120" height="60" as="geometry" />
        </mxCell>
        <mxCell id="mFNmh4hHeNqdvngOl9E4-7" value="Database" style="rounded=0;whiteSpace=wrap;html=1;" parent="1" vertex="1">
          <mxGeometry x="670" y="20" width="120" height="60" as="geometry" />
        </mxCell>
        <mxCell id="mFNmh4hHeNqdvngOl9E4-9" value="" style="html=1;points=[[0,0,0,0,5],[0,1,0,0,-5],[1,0,0,0,5],[1,1,0,0,-5]];perimeter=orthogonalPerimeter;outlineConnect=0;targetShapes=umlLifeline;portConstraint=eastwest;newEdgeStyle={&quot;curved&quot;:0,&quot;rounded&quot;:0};" parent="1" vertex="1">
          <mxGeometry x="421" y="160" width="10" height="190" as="geometry" />
        </mxCell>
        <mxCell id="mFNmh4hHeNqdvngOl9E4-11" value="" style="endArrow=none;dashed=1;html=1;rounded=0;entryX=0.5;entryY=0.5;entryDx=0;entryDy=0;entryPerimeter=0;" parent="1" edge="1">
          <mxGeometry width="50" height="50" relative="1" as="geometry">
            <mxPoint x="45" y="1160" as="sourcePoint" />
            <mxPoint x="45" y="50" as="targetPoint" />
          </mxGeometry>
        </mxCell>
        <mxCell id="mFNmh4hHeNqdvngOl9E4-12" value="" style="endArrow=none;dashed=1;html=1;rounded=0;entryX=0.5;entryY=0.5;entryDx=0;entryDy=0;entryPerimeter=0;exitX=0;exitY=1;exitDx=0;exitDy=0;" parent="1" edge="1" source="hjpj0B5K8KZP-2ziC6GU-13">
          <mxGeometry width="50" height="50" relative="1" as="geometry">
            <mxPoint x="144" y="1250" as="sourcePoint" />
            <mxPoint x="144" y="50" as="targetPoint" />
          </mxGeometry>
        </mxCell>
        <mxCell id="mFNmh4hHeNqdvngOl9E4-13" value="" style="endArrow=none;dashed=1;html=1;rounded=0;entryX=0.5;entryY=0.5;entryDx=0;entryDy=0;entryPerimeter=0;exitX=0.971;exitY=1.308;exitDx=0;exitDy=0;exitPerimeter=0;" parent="1" edge="1" source="hjpj0B5K8KZP-2ziC6GU-13">
          <mxGeometry width="50" height="50" relative="1" as="geometry">
            <mxPoint x="255" y="1170" as="sourcePoint" />
            <mxPoint x="255" y="50" as="targetPoint" />
          </mxGeometry>
        </mxCell>
        <mxCell id="mFNmh4hHeNqdvngOl9E4-14" value="" style="endArrow=none;dashed=1;html=1;rounded=0;entryX=0.5;entryY=1;entryDx=0;entryDy=0;" parent="1" source="mFNmh4hHeNqdvngOl9E4-9" target="mFNmh4hHeNqdvngOl9E4-6" edge="1">
          <mxGeometry width="50" height="50" relative="1" as="geometry">
            <mxPoint x="326" y="460" as="sourcePoint" />
            <mxPoint x="376" y="410" as="targetPoint" />
          </mxGeometry>
        </mxCell>
        <mxCell id="mFNmh4hHeNqdvngOl9E4-15" value="" style="endArrow=none;dashed=1;html=1;rounded=0;" parent="1" source="mFNmh4hHeNqdvngOl9E4-36" edge="1">
          <mxGeometry width="50" height="50" relative="1" as="geometry">
            <mxPoint x="426" y="730" as="sourcePoint" />
            <mxPoint x="426" y="350" as="targetPoint" />
          </mxGeometry>
        </mxCell>
        <mxCell id="mFNmh4hHeNqdvngOl9E4-16" value="" style="endArrow=classic;html=1;rounded=0;" parent="1" edge="1">
          <mxGeometry width="50" height="50" relative="1" as="geometry">
            <mxPoint x="46" y="160" as="sourcePoint" />
            <mxPoint x="426" y="160" as="targetPoint" />
          </mxGeometry>
        </mxCell>
        <mxCell id="mFNmh4hHeNqdvngOl9E4-19" value="" style="endArrow=classic;html=1;rounded=0;entryX=0.569;entryY=-0.033;entryDx=0;entryDy=0;entryPerimeter=0;" parent="1" source="mFNmh4hHeNqdvngOl9E4-9" target="mFNmh4hHeNqdvngOl9E4-18" edge="1">
          <mxGeometry width="50" height="50" relative="1" as="geometry">
            <mxPoint x="426" y="270" as="sourcePoint" />
            <mxPoint x="476" y="220" as="targetPoint" />
          </mxGeometry>
        </mxCell>
        <mxCell id="mFNmh4hHeNqdvngOl9E4-21" value="" style="endArrow=classic;html=1;rounded=0;dashed=1;" parent="1" edge="1" source="mFNmh4hHeNqdvngOl9E4-18">
          <mxGeometry width="50" height="50" relative="1" as="geometry">
            <mxPoint x="831" y="263" as="sourcePoint" />
            <mxPoint x="431" y="263" as="targetPoint" />
          </mxGeometry>
        </mxCell>
        <mxCell id="mFNmh4hHeNqdvngOl9E4-22" value="" style="endArrow=classic;html=1;rounded=0;exitX=0.5;exitY=1;exitDx=0;exitDy=0;exitPerimeter=0;dashed=1;" parent="1" edge="1">
          <mxGeometry width="50" height="50" relative="1" as="geometry">
            <mxPoint x="420.9999999999998" y="190" as="sourcePoint" />
            <mxPoint x="41" y="190" as="targetPoint" />
          </mxGeometry>
        </mxCell>
        <mxCell id="mFNmh4hHeNqdvngOl9E4-23" value="Log In" style="text;strokeColor=none;align=center;fillColor=none;html=1;verticalAlign=middle;whiteSpace=wrap;rounded=0;" parent="1" vertex="1">
          <mxGeometry x="68" y="133" width="60" height="30" as="geometry" />
        </mxCell>
        <mxCell id="mFNmh4hHeNqdvngOl9E4-25" value="Confirm Log In" style="text;strokeColor=none;align=center;fillColor=none;html=1;verticalAlign=middle;whiteSpace=wrap;rounded=0;" parent="1" vertex="1">
          <mxGeometry x="54" y="187" width="90" height="30" as="geometry" />
        </mxCell>
        <mxCell id="mFNmh4hHeNqdvngOl9E4-26" value="Log In Details" style="text;strokeColor=none;align=center;fillColor=none;html=1;verticalAlign=middle;whiteSpace=wrap;rounded=0;" parent="1" vertex="1">
          <mxGeometry x="535" y="153" width="100" height="30" as="geometry" />
        </mxCell>
        <mxCell id="mFNmh4hHeNqdvngOl9E4-27" value="" style="endArrow=classic;html=1;rounded=0;" parent="1" edge="1">
          <mxGeometry width="50" height="50" relative="1" as="geometry">
            <mxPoint x="146" y="246" as="sourcePoint" />
            <mxPoint x="421" y="246" as="targetPoint" />
          </mxGeometry>
        </mxCell>
        <mxCell id="mFNmh4hHeNqdvngOl9E4-28" value="Log In" style="text;strokeColor=none;align=center;fillColor=none;html=1;verticalAlign=middle;whiteSpace=wrap;rounded=0;" parent="1" vertex="1">
          <mxGeometry x="176" y="221" width="60" height="30" as="geometry" />
        </mxCell>
        <mxCell id="mFNmh4hHeNqdvngOl9E4-29" value="" style="endArrow=classic;html=1;rounded=0;dashed=1;" parent="1" edge="1">
          <mxGeometry width="50" height="50" relative="1" as="geometry">
            <mxPoint x="421" y="274" as="sourcePoint" />
            <mxPoint x="146" y="274" as="targetPoint" />
          </mxGeometry>
        </mxCell>
        <mxCell id="mFNmh4hHeNqdvngOl9E4-30" value="Confirm Log In" style="text;strokeColor=none;align=center;fillColor=none;html=1;verticalAlign=middle;whiteSpace=wrap;rounded=0;" parent="1" vertex="1">
          <mxGeometry x="159" y="271" width="90" height="30" as="geometry" />
        </mxCell>
        <mxCell id="mFNmh4hHeNqdvngOl9E4-31" value="Verify Log In" style="text;strokeColor=none;align=center;fillColor=none;html=1;verticalAlign=middle;whiteSpace=wrap;rounded=0;" parent="1" vertex="1">
          <mxGeometry x="539" y="263" width="90" height="30" as="geometry" />
        </mxCell>
        <mxCell id="mFNmh4hHeNqdvngOl9E4-32" value="" style="endArrow=classic;html=1;rounded=0;" parent="1" target="mFNmh4hHeNqdvngOl9E4-9" edge="1">
          <mxGeometry width="50" height="50" relative="1" as="geometry">
            <mxPoint x="256" y="310" as="sourcePoint" />
            <mxPoint x="486" y="310" as="targetPoint" />
          </mxGeometry>
        </mxCell>
        <mxCell id="mFNmh4hHeNqdvngOl9E4-33" value="" style="endArrow=classic;html=1;rounded=0;dashed=1;" parent="1" source="mFNmh4hHeNqdvngOl9E4-9" edge="1">
          <mxGeometry width="50" height="50" relative="1" as="geometry">
            <mxPoint x="436" y="320" as="sourcePoint" />
            <mxPoint x="256" y="350" as="targetPoint" />
          </mxGeometry>
        </mxCell>
        <mxCell id="mFNmh4hHeNqdvngOl9E4-34" value="Log In" style="text;strokeColor=none;align=center;fillColor=none;html=1;verticalAlign=middle;whiteSpace=wrap;rounded=0;" parent="1" vertex="1">
          <mxGeometry x="306" y="288" width="60" height="30" as="geometry" />
        </mxCell>
        <mxCell id="mFNmh4hHeNqdvngOl9E4-35" value="Confirm Log In" style="text;strokeColor=none;align=center;fillColor=none;html=1;verticalAlign=middle;whiteSpace=wrap;rounded=0;" parent="1" vertex="1">
          <mxGeometry x="291" y="343" width="90" height="30" as="geometry" />
        </mxCell>
        <mxCell id="mFNmh4hHeNqdvngOl9E4-37" value="" style="endArrow=none;dashed=1;html=1;rounded=0;" parent="1" source="mFNmh4hHeNqdvngOl9E4-50" target="mFNmh4hHeNqdvngOl9E4-36" edge="1">
          <mxGeometry width="50" height="50" relative="1" as="geometry">
            <mxPoint x="426" y="730" as="sourcePoint" />
            <mxPoint x="426" y="400" as="targetPoint" />
          </mxGeometry>
        </mxCell>
        <mxCell id="mFNmh4hHeNqdvngOl9E4-36" value="" style="html=1;points=[[0,0,0,0,5],[0,1,0,0,-5],[1,0,0,0,5],[1,1,0,0,-5]];perimeter=orthogonalPerimeter;outlineConnect=0;targetShapes=umlLifeline;portConstraint=eastwest;newEdgeStyle={&quot;curved&quot;:0,&quot;rounded&quot;:0};" parent="1" vertex="1">
          <mxGeometry x="421" y="403" width="10" height="100" as="geometry" />
        </mxCell>
        <mxCell id="mFNmh4hHeNqdvngOl9E4-38" value="" style="endArrow=none;dashed=1;html=1;rounded=0;" parent="1" source="mFNmh4hHeNqdvngOl9E4-18" edge="1">
          <mxGeometry width="50" height="50" relative="1" as="geometry">
            <mxPoint x="730" y="700" as="sourcePoint" />
            <mxPoint x="730" y="80" as="targetPoint" />
          </mxGeometry>
        </mxCell>
        <mxCell id="mFNmh4hHeNqdvngOl9E4-39" value="" style="endArrow=none;dashed=1;html=1;rounded=0;" parent="1" source="mFNmh4hHeNqdvngOl9E4-54" target="mFNmh4hHeNqdvngOl9E4-18" edge="1">
          <mxGeometry width="50" height="50" relative="1" as="geometry">
            <mxPoint x="730" y="700" as="sourcePoint" />
            <mxPoint x="730" y="80" as="targetPoint" />
          </mxGeometry>
        </mxCell>
        <mxCell id="mFNmh4hHeNqdvngOl9E4-18" value="" style="html=1;points=[[0,0,0,0,5],[0,1,0,0,-5],[1,0,0,0,5],[1,1,0,0,-5]];perimeter=orthogonalPerimeter;outlineConnect=0;targetShapes=umlLifeline;portConstraint=eastwest;newEdgeStyle={&quot;curved&quot;:0,&quot;rounded&quot;:0};" parent="1" vertex="1">
          <mxGeometry x="725" y="183" width="10" height="80" as="geometry" />
        </mxCell>
        <mxCell id="mFNmh4hHeNqdvngOl9E4-40" value="" style="endArrow=classic;html=1;rounded=0;" parent="1" target="mFNmh4hHeNqdvngOl9E4-36" edge="1">
          <mxGeometry width="50" height="50" relative="1" as="geometry">
            <mxPoint x="46" y="400" as="sourcePoint" />
            <mxPoint x="486" y="460" as="targetPoint" />
          </mxGeometry>
        </mxCell>
        <mxCell id="mFNmh4hHeNqdvngOl9E4-41" value="" style="endArrow=classic;html=1;rounded=0;" parent="1" edge="1" target="mFNmh4hHeNqdvngOl9E4-63">
          <mxGeometry width="50" height="50" relative="1" as="geometry">
            <mxPoint x="432" y="406" as="sourcePoint" />
            <mxPoint x="832" y="406" as="targetPoint" />
          </mxGeometry>
        </mxCell>
        <mxCell id="mFNmh4hHeNqdvngOl9E4-43" value="" style="endArrow=classic;html=1;rounded=0;dashed=1;" parent="1" edge="1">
          <mxGeometry width="50" height="50" relative="1" as="geometry">
            <mxPoint x="730" y="487" as="sourcePoint" />
            <mxPoint x="431" y="487" as="targetPoint" />
          </mxGeometry>
        </mxCell>
        <mxCell id="mFNmh4hHeNqdvngOl9E4-44" value="" style="endArrow=classic;html=1;rounded=0;dashed=1;" parent="1" edge="1">
          <mxGeometry width="50" height="50" relative="1" as="geometry">
            <mxPoint x="421" y="503" as="sourcePoint" />
            <mxPoint x="46" y="503" as="targetPoint" />
          </mxGeometry>
        </mxCell>
        <mxCell id="mFNmh4hHeNqdvngOl9E4-45" value="Book Appointment" style="text;strokeColor=none;align=center;fillColor=none;html=1;verticalAlign=middle;whiteSpace=wrap;rounded=0;" parent="1" vertex="1">
          <mxGeometry x="163" y="371" width="80" height="30" as="geometry" />
        </mxCell>
        <mxCell id="mFNmh4hHeNqdvngOl9E4-47" value="Find Slot" style="text;strokeColor=none;align=center;fillColor=none;html=1;verticalAlign=middle;whiteSpace=wrap;rounded=0;" parent="1" vertex="1">
          <mxGeometry x="550.5" y="376" width="60" height="30" as="geometry" />
        </mxCell>
        <mxCell id="mFNmh4hHeNqdvngOl9E4-48" value="Slot Confirmation" style="text;strokeColor=none;align=center;fillColor=none;html=1;verticalAlign=middle;whiteSpace=wrap;rounded=0;" parent="1" vertex="1">
          <mxGeometry x="531" y="486" width="120" height="30" as="geometry" />
        </mxCell>
        <mxCell id="mFNmh4hHeNqdvngOl9E4-49" value="Confirm Booking" style="text;strokeColor=none;align=center;fillColor=none;html=1;verticalAlign=middle;whiteSpace=wrap;rounded=0;" parent="1" vertex="1">
          <mxGeometry x="146" y="503" width="120" height="30" as="geometry" />
        </mxCell>
        <mxCell id="mFNmh4hHeNqdvngOl9E4-51" value="" style="endArrow=none;dashed=1;html=1;rounded=0;" parent="1" source="mFNmh4hHeNqdvngOl9E4-65" target="mFNmh4hHeNqdvngOl9E4-50" edge="1">
          <mxGeometry width="50" height="50" relative="1" as="geometry">
            <mxPoint x="426" y="990" as="sourcePoint" />
            <mxPoint x="426" y="503" as="targetPoint" />
          </mxGeometry>
        </mxCell>
        <mxCell id="mFNmh4hHeNqdvngOl9E4-50" value="" style="html=1;points=[[0,0,0,0,5],[0,1,0,0,-5],[1,0,0,0,5],[1,1,0,0,-5]];perimeter=orthogonalPerimeter;outlineConnect=0;targetShapes=umlLifeline;portConstraint=eastwest;newEdgeStyle={&quot;curved&quot;:0,&quot;rounded&quot;:0};" parent="1" vertex="1">
          <mxGeometry x="421" y="570" width="10" height="100" as="geometry" />
        </mxCell>
        <mxCell id="mFNmh4hHeNqdvngOl9E4-52" value="" style="endArrow=classic;html=1;rounded=0;" parent="1" edge="1">
          <mxGeometry width="50" height="50" relative="1" as="geometry">
            <mxPoint x="146" y="570" as="sourcePoint" />
            <mxPoint x="426" y="570" as="targetPoint" />
          </mxGeometry>
        </mxCell>
        <mxCell id="mFNmh4hHeNqdvngOl9E4-53" value="" style="endArrow=classic;html=1;rounded=0;dashed=1;" parent="1" source="mFNmh4hHeNqdvngOl9E4-50" edge="1">
          <mxGeometry width="50" height="50" relative="1" as="geometry">
            <mxPoint x="426" y="674" as="sourcePoint" />
            <mxPoint x="146" y="670" as="targetPoint" />
          </mxGeometry>
        </mxCell>
        <mxCell id="mFNmh4hHeNqdvngOl9E4-55" value="" style="endArrow=none;dashed=1;html=1;rounded=0;" parent="1" source="mFNmh4hHeNqdvngOl9E4-68" target="mFNmh4hHeNqdvngOl9E4-54" edge="1">
          <mxGeometry width="50" height="50" relative="1" as="geometry">
            <mxPoint x="730" y="990" as="sourcePoint" />
            <mxPoint x="730" y="263" as="targetPoint" />
          </mxGeometry>
        </mxCell>
        <mxCell id="mFNmh4hHeNqdvngOl9E4-54" value="" style="html=1;points=[[0,0,0,0,5],[0,1,0,0,-5],[1,0,0,0,5],[1,1,0,0,-5]];perimeter=orthogonalPerimeter;outlineConnect=0;targetShapes=umlLifeline;portConstraint=eastwest;newEdgeStyle={&quot;curved&quot;:0,&quot;rounded&quot;:0};" parent="1" vertex="1">
          <mxGeometry x="725" y="583" width="10" height="57" as="geometry" />
        </mxCell>
        <mxCell id="mFNmh4hHeNqdvngOl9E4-56" value="" style="endArrow=classic;html=1;rounded=0;" parent="1" edge="1">
          <mxGeometry width="50" height="50" relative="1" as="geometry">
            <mxPoint x="431" y="581" as="sourcePoint" />
            <mxPoint x="730" y="580" as="targetPoint" />
          </mxGeometry>
        </mxCell>
        <mxCell id="mFNmh4hHeNqdvngOl9E4-57" value="" style="endArrow=classic;html=1;rounded=0;dashed=1;" parent="1" edge="1">
          <mxGeometry width="50" height="50" relative="1" as="geometry">
            <mxPoint x="730" y="640" as="sourcePoint" />
            <mxPoint x="431" y="640.5000000000002" as="targetPoint" />
          </mxGeometry>
        </mxCell>
        <mxCell id="mFNmh4hHeNqdvngOl9E4-58" value="Update Availability" style="text;strokeColor=none;align=center;fillColor=none;html=1;verticalAlign=middle;whiteSpace=wrap;rounded=0;" parent="1" vertex="1">
          <mxGeometry x="266" y="540" width="100" height="30" as="geometry" />
        </mxCell>
        <mxCell id="mFNmh4hHeNqdvngOl9E4-59" value="Confirmation" style="text;strokeColor=none;align=center;fillColor=none;html=1;verticalAlign=middle;whiteSpace=wrap;rounded=0;" parent="1" vertex="1">
          <mxGeometry x="273" y="670" width="60" height="30" as="geometry" />
        </mxCell>
        <mxCell id="mFNmh4hHeNqdvngOl9E4-61" value="Save Availability" style="text;strokeColor=none;align=center;fillColor=none;html=1;verticalAlign=middle;whiteSpace=wrap;rounded=0;" parent="1" vertex="1">
          <mxGeometry x="519" y="553" width="110" height="30" as="geometry" />
        </mxCell>
        <mxCell id="mFNmh4hHeNqdvngOl9E4-62" value="Confirm Availability Save" style="text;strokeColor=none;align=center;fillColor=none;html=1;verticalAlign=middle;whiteSpace=wrap;rounded=0;" parent="1" vertex="1">
          <mxGeometry x="527" y="640" width="137" height="30" as="geometry" />
        </mxCell>
        <mxCell id="mFNmh4hHeNqdvngOl9E4-63" value="" style="html=1;points=[[0,0,0,0,5],[0,1,0,0,-5],[1,0,0,0,5],[1,1,0,0,-5]];perimeter=orthogonalPerimeter;outlineConnect=0;targetShapes=umlLifeline;portConstraint=eastwest;newEdgeStyle={&quot;curved&quot;:0,&quot;rounded&quot;:0};" parent="1" vertex="1">
          <mxGeometry x="725" y="406" width="10" height="80" as="geometry" />
        </mxCell>
        <mxCell id="mFNmh4hHeNqdvngOl9E4-64" value="" style="endArrow=none;dashed=1;html=1;rounded=0;" parent="1" source="mFNmh4hHeNqdvngOl9E4-78" target="mFNmh4hHeNqdvngOl9E4-65" edge="1">
          <mxGeometry width="50" height="50" relative="1" as="geometry">
            <mxPoint x="426" y="990" as="sourcePoint" />
            <mxPoint x="426" y="670" as="targetPoint" />
          </mxGeometry>
        </mxCell>
        <mxCell id="mFNmh4hHeNqdvngOl9E4-65" value="" style="html=1;points=[[0,0,0,0,5],[0,1,0,0,-5],[1,0,0,0,5],[1,1,0,0,-5]];perimeter=orthogonalPerimeter;outlineConnect=0;targetShapes=umlLifeline;portConstraint=eastwest;newEdgeStyle={&quot;curved&quot;:0,&quot;rounded&quot;:0};" parent="1" vertex="1">
          <mxGeometry x="421" y="730" width="10" height="100" as="geometry" />
        </mxCell>
        <mxCell id="mFNmh4hHeNqdvngOl9E4-66" value="" style="endArrow=classic;html=1;rounded=0;" parent="1" edge="1">
          <mxGeometry width="50" height="50" relative="1" as="geometry">
            <mxPoint x="256" y="730" as="sourcePoint" />
            <mxPoint x="426" y="730" as="targetPoint" />
          </mxGeometry>
        </mxCell>
        <mxCell id="mFNmh4hHeNqdvngOl9E4-67" value="" style="endArrow=classic;html=1;rounded=0;exitX=1.5;exitY=0.25;exitDx=0;exitDy=0;exitPerimeter=0;" parent="1" edge="1">
          <mxGeometry width="50" height="50" relative="1" as="geometry">
            <mxPoint x="431" y="750" as="sourcePoint" />
            <mxPoint x="730" y="750" as="targetPoint" />
          </mxGeometry>
        </mxCell>
        <mxCell id="mFNmh4hHeNqdvngOl9E4-69" value="" style="endArrow=none;dashed=1;html=1;rounded=0;" parent="1" source="mFNmh4hHeNqdvngOl9E4-82" target="mFNmh4hHeNqdvngOl9E4-68" edge="1">
          <mxGeometry width="50" height="50" relative="1" as="geometry">
            <mxPoint x="730" y="1140" as="sourcePoint" />
            <mxPoint x="730" y="640" as="targetPoint" />
          </mxGeometry>
        </mxCell>
        <mxCell id="mFNmh4hHeNqdvngOl9E4-68" value="" style="html=1;points=[[0,0,0,0,5],[0,1,0,0,-5],[1,0,0,0,5],[1,1,0,0,-5]];perimeter=orthogonalPerimeter;outlineConnect=0;targetShapes=umlLifeline;portConstraint=eastwest;newEdgeStyle={&quot;curved&quot;:0,&quot;rounded&quot;:0};" parent="1" vertex="1">
          <mxGeometry x="725" y="752" width="10" height="48" as="geometry" />
        </mxCell>
        <mxCell id="mFNmh4hHeNqdvngOl9E4-70" value="" style="endArrow=classic;html=1;rounded=0;dashed=1;" parent="1" edge="1">
          <mxGeometry width="50" height="50" relative="1" as="geometry">
            <mxPoint x="730" y="800" as="sourcePoint" />
            <mxPoint x="431" y="800" as="targetPoint" />
          </mxGeometry>
        </mxCell>
        <mxCell id="mFNmh4hHeNqdvngOl9E4-71" value="" style="endArrow=classic;html=1;rounded=0;" parent="1" source="mFNmh4hHeNqdvngOl9E4-65" edge="1">
          <mxGeometry width="50" height="50" relative="1" as="geometry">
            <mxPoint x="376" y="650" as="sourcePoint" />
            <mxPoint x="256" y="830" as="targetPoint" />
          </mxGeometry>
        </mxCell>
        <mxCell id="mFNmh4hHeNqdvngOl9E4-72" value="Configure Slots" style="text;strokeColor=none;align=center;fillColor=none;html=1;verticalAlign=middle;whiteSpace=wrap;rounded=0;" parent="1" vertex="1">
          <mxGeometry x="297" y="700" width="90" height="30" as="geometry" />
        </mxCell>
        <mxCell id="mFNmh4hHeNqdvngOl9E4-73" value="Save Slot Configuration" style="text;strokeColor=none;align=center;fillColor=none;html=1;verticalAlign=middle;whiteSpace=wrap;rounded=0;" parent="1" vertex="1">
          <mxGeometry x="505.5" y="720" width="148" height="30" as="geometry" />
        </mxCell>
        <mxCell id="mFNmh4hHeNqdvngOl9E4-75" value="Confirm Save Slot Configuration" style="text;strokeColor=none;align=center;fillColor=none;html=1;verticalAlign=middle;whiteSpace=wrap;rounded=0;" parent="1" vertex="1">
          <mxGeometry x="480" y="806" width="201" height="30" as="geometry" />
        </mxCell>
        <mxCell id="mFNmh4hHeNqdvngOl9E4-76" value="Confirm Saved Configuration" style="text;strokeColor=none;align=center;fillColor=none;html=1;verticalAlign=middle;whiteSpace=wrap;rounded=0;" parent="1" vertex="1">
          <mxGeometry x="253" y="830" width="167" height="30" as="geometry" />
        </mxCell>
        <mxCell id="mFNmh4hHeNqdvngOl9E4-79" value="" style="endArrow=none;dashed=1;html=1;rounded=0;" parent="1" target="mFNmh4hHeNqdvngOl9E4-78" edge="1" source="hjpj0B5K8KZP-2ziC6GU-2">
          <mxGeometry width="50" height="50" relative="1" as="geometry">
            <mxPoint x="426" y="1331.5384615384614" as="sourcePoint" />
            <mxPoint x="426" y="830" as="targetPoint" />
          </mxGeometry>
        </mxCell>
        <mxCell id="mFNmh4hHeNqdvngOl9E4-78" value="" style="html=1;points=[[0,0,0,0,5],[0,1,0,0,-5],[1,0,0,0,5],[1,1,0,0,-5]];perimeter=orthogonalPerimeter;outlineConnect=0;targetShapes=umlLifeline;portConstraint=eastwest;newEdgeStyle={&quot;curved&quot;:0,&quot;rounded&quot;:0};" parent="1" vertex="1">
          <mxGeometry x="421" y="905" width="10" height="75" as="geometry" />
        </mxCell>
        <mxCell id="mFNmh4hHeNqdvngOl9E4-80" value="" style="endArrow=classic;html=1;rounded=0;entryX=0;entryY=0;entryDx=0;entryDy=5;entryPerimeter=0;" parent="1" edge="1">
          <mxGeometry width="50" height="50" relative="1" as="geometry">
            <mxPoint x="256" y="905" as="sourcePoint" />
            <mxPoint x="427" y="905" as="targetPoint" />
          </mxGeometry>
        </mxCell>
        <mxCell id="mFNmh4hHeNqdvngOl9E4-81" value="" style="endArrow=classic;html=1;rounded=0;dashed=1;" parent="1" edge="1">
          <mxGeometry width="50" height="50" relative="1" as="geometry">
            <mxPoint x="421" y="980" as="sourcePoint" />
            <mxPoint x="256" y="980" as="targetPoint" />
          </mxGeometry>
        </mxCell>
        <mxCell id="mFNmh4hHeNqdvngOl9E4-83" value="" style="endArrow=none;dashed=1;html=1;rounded=0;" parent="1" target="mFNmh4hHeNqdvngOl9E4-82" edge="1" source="hjpj0B5K8KZP-2ziC6GU-5">
          <mxGeometry width="50" height="50" relative="1" as="geometry">
            <mxPoint x="730" y="1330" as="sourcePoint" />
            <mxPoint x="730" y="800" as="targetPoint" />
          </mxGeometry>
        </mxCell>
        <mxCell id="mFNmh4hHeNqdvngOl9E4-82" value="" style="html=1;points=[[0,0,0,0,5],[0,1,0,0,-5],[1,0,0,0,5],[1,1,0,0,-5]];perimeter=orthogonalPerimeter;outlineConnect=0;targetShapes=umlLifeline;portConstraint=eastwest;newEdgeStyle={&quot;curved&quot;:0,&quot;rounded&quot;:0};" parent="1" vertex="1">
          <mxGeometry x="725" y="919" width="10" height="41" as="geometry" />
        </mxCell>
        <mxCell id="mFNmh4hHeNqdvngOl9E4-84" value="" style="endArrow=classic;html=1;rounded=0;" parent="1" source="mFNmh4hHeNqdvngOl9E4-78" edge="1">
          <mxGeometry width="50" height="50" relative="1" as="geometry">
            <mxPoint x="436" y="917" as="sourcePoint" />
            <mxPoint x="730" y="917" as="targetPoint" />
          </mxGeometry>
        </mxCell>
        <mxCell id="mFNmh4hHeNqdvngOl9E4-85" value="" style="endArrow=classic;html=1;rounded=0;dashed=1;" parent="1" edge="1">
          <mxGeometry width="50" height="50" relative="1" as="geometry">
            <mxPoint x="730" y="962" as="sourcePoint" />
            <mxPoint x="431" y="962" as="targetPoint" />
          </mxGeometry>
        </mxCell>
        <mxCell id="mFNmh4hHeNqdvngOl9E4-86" value="Manage Users" style="text;strokeColor=none;align=center;fillColor=none;html=1;verticalAlign=middle;whiteSpace=wrap;rounded=0;" parent="1" vertex="1">
          <mxGeometry x="290" y="880" width="96" height="30" as="geometry" />
        </mxCell>
        <mxCell id="mFNmh4hHeNqdvngOl9E4-87" value="Add/Update/Delete User" style="text;strokeColor=none;align=center;fillColor=none;html=1;verticalAlign=middle;whiteSpace=wrap;rounded=0;" parent="1" vertex="1">
          <mxGeometry x="512" y="889" width="158" height="30" as="geometry" />
        </mxCell>
        <mxCell id="mFNmh4hHeNqdvngOl9E4-89" value="Confirm Operation" style="text;strokeColor=none;align=center;fillColor=none;html=1;verticalAlign=middle;whiteSpace=wrap;rounded=0;rotation=0;" parent="1" vertex="1">
          <mxGeometry x="539" y="965" width="113" height="30" as="geometry" />
        </mxCell>
        <mxCell id="mFNmh4hHeNqdvngOl9E4-90" value="Confirm Operation" style="text;strokeColor=none;align=center;fillColor=none;html=1;verticalAlign=middle;whiteSpace=wrap;rounded=0;" parent="1" vertex="1">
          <mxGeometry x="282" y="977" width="114" height="30" as="geometry" />
        </mxCell>
        <mxCell id="hjpj0B5K8KZP-2ziC6GU-3" value="" style="endArrow=none;dashed=1;html=1;rounded=0;" edge="1" parent="1" target="hjpj0B5K8KZP-2ziC6GU-2">
          <mxGeometry width="50" height="50" relative="1" as="geometry">
            <mxPoint x="426" y="1160" as="sourcePoint" />
            <mxPoint x="426" y="1005" as="targetPoint" />
          </mxGeometry>
        </mxCell>
        <mxCell id="hjpj0B5K8KZP-2ziC6GU-2" value="" style="html=1;points=[[0,0,0,0,5],[0,1,0,0,-5],[1,0,0,0,5],[1,1,0,0,-5]];perimeter=orthogonalPerimeter;outlineConnect=0;targetShapes=umlLifeline;portConstraint=eastwest;newEdgeStyle={&quot;curved&quot;:0,&quot;rounded&quot;:0};" vertex="1" parent="1">
          <mxGeometry x="421" y="1040" width="10" height="80" as="geometry" />
        </mxCell>
        <mxCell id="hjpj0B5K8KZP-2ziC6GU-4" value="" style="endArrow=classic;html=1;rounded=0;" edge="1" parent="1">
          <mxGeometry width="50" height="50" relative="1" as="geometry">
            <mxPoint x="46" y="1040" as="sourcePoint" />
            <mxPoint x="421" y="1040" as="targetPoint" />
          </mxGeometry>
        </mxCell>
        <mxCell id="hjpj0B5K8KZP-2ziC6GU-6" value="" style="endArrow=none;dashed=1;html=1;rounded=0;" edge="1" parent="1" target="hjpj0B5K8KZP-2ziC6GU-5">
          <mxGeometry width="50" height="50" relative="1" as="geometry">
            <mxPoint x="730" y="1160" as="sourcePoint" />
            <mxPoint x="730" y="984" as="targetPoint" />
          </mxGeometry>
        </mxCell>
        <mxCell id="hjpj0B5K8KZP-2ziC6GU-5" value="" style="html=1;points=[[0,0,0,0,5],[0,1,0,0,-5],[1,0,0,0,5],[1,1,0,0,-5]];perimeter=orthogonalPerimeter;outlineConnect=0;targetShapes=umlLifeline;portConstraint=eastwest;newEdgeStyle={&quot;curved&quot;:0,&quot;rounded&quot;:0};" vertex="1" parent="1">
          <mxGeometry x="725" y="1050" width="10" height="49" as="geometry" />
        </mxCell>
        <mxCell id="hjpj0B5K8KZP-2ziC6GU-7" value="" style="endArrow=classic;html=1;rounded=0;entryX=0.723;entryY=-0.047;entryDx=0;entryDy=0;entryPerimeter=0;" edge="1" parent="1" source="hjpj0B5K8KZP-2ziC6GU-2" target="hjpj0B5K8KZP-2ziC6GU-5">
          <mxGeometry width="50" height="50" relative="1" as="geometry">
            <mxPoint x="286" y="1120" as="sourcePoint" />
            <mxPoint x="336" y="1070" as="targetPoint" />
          </mxGeometry>
        </mxCell>
        <mxCell id="hjpj0B5K8KZP-2ziC6GU-8" value="" style="endArrow=classic;html=1;rounded=0;exitX=0.492;exitY=1.008;exitDx=0;exitDy=0;exitPerimeter=0;dashed=1;" edge="1" parent="1" source="hjpj0B5K8KZP-2ziC6GU-5" target="hjpj0B5K8KZP-2ziC6GU-2">
          <mxGeometry width="50" height="50" relative="1" as="geometry">
            <mxPoint x="286" y="1120" as="sourcePoint" />
            <mxPoint x="336" y="1070" as="targetPoint" />
          </mxGeometry>
        </mxCell>
        <mxCell id="hjpj0B5K8KZP-2ziC6GU-9" value="" style="endArrow=classic;html=1;rounded=0;dashed=1;" edge="1" parent="1" source="hjpj0B5K8KZP-2ziC6GU-2">
          <mxGeometry width="50" height="50" relative="1" as="geometry">
            <mxPoint x="286" y="1120" as="sourcePoint" />
            <mxPoint x="50" y="1120" as="targetPoint" />
          </mxGeometry>
        </mxCell>
        <mxCell id="hjpj0B5K8KZP-2ziC6GU-10" value="Check In" style="text;strokeColor=none;align=center;fillColor=none;html=1;verticalAlign=middle;whiteSpace=wrap;rounded=0;" vertex="1" parent="1">
          <mxGeometry x="143" y="1013" width="114" height="30" as="geometry" />
        </mxCell>
        <mxCell id="hjpj0B5K8KZP-2ziC6GU-11" value="Update Status" style="text;strokeColor=none;align=center;fillColor=none;html=1;verticalAlign=middle;whiteSpace=wrap;rounded=0;" vertex="1" parent="1">
          <mxGeometry x="517" y="1021" width="114" height="30" as="geometry" />
        </mxCell>
        <mxCell id="hjpj0B5K8KZP-2ziC6GU-12" value="Confirm Status Update" style="text;strokeColor=none;align=center;fillColor=none;html=1;verticalAlign=middle;whiteSpace=wrap;rounded=0;" vertex="1" parent="1">
          <mxGeometry x="506" y="1104" width="147" height="30" as="geometry" />
        </mxCell>
        <mxCell id="hjpj0B5K8KZP-2ziC6GU-13" value="Confirm Check In" style="text;strokeColor=none;align=center;fillColor=none;html=1;verticalAlign=middle;whiteSpace=wrap;rounded=0;" vertex="1" parent="1">
          <mxGeometry x="145" y="1121" width="114" height="30" as="geometry" />
        </mxCell>
      </root>
    </mxGraphModel>
  </diagram>
</mxfile>
